<mxfile host="app.diagrams.net" modified="2021-05-09T03:36:55.432Z" agent="5.0 (Windows NT 10.0; Win64; x64) AppleWebKit/537.36 (KHTML, like Gecko) Chrome/90.0.4430.93 Safari/537.36" etag="5aCHGm7AK-qNlstzn6jN" version="14.6.11" type="github" pages="2">
  <diagram id="prtHgNgQTEPvFCAcTncT" name="Page-1">
    <mxGraphModel dx="1220" dy="645" grid="1" gridSize="10" guides="1" tooltips="1" connect="1" arrows="1" fold="1" page="1" pageScale="1" pageWidth="827" pageHeight="1169" math="0" shadow="0">
      <root>
        <mxCell id="0" />
        <mxCell id="1" parent="0" />
        <mxCell id="fXYUxJYB6lVr97315Qnc-3" value="管理端" style="rounded=1;whiteSpace=wrap;html=1;" parent="1" vertex="1">
          <mxGeometry x="390" y="90" width="120" height="60" as="geometry" />
        </mxCell>
        <mxCell id="iNFX2JiSJiYVH2UMlEb5-2" style="edgeStyle=orthogonalEdgeStyle;rounded=0;orthogonalLoop=1;jettySize=auto;html=1;" edge="1" parent="1" target="fXYUxJYB6lVr97315Qnc-3">
          <mxGeometry relative="1" as="geometry">
            <mxPoint x="270" y="220" as="sourcePoint" />
            <Array as="points">
              <mxPoint x="270" y="190" />
              <mxPoint x="450" y="190" />
            </Array>
          </mxGeometry>
        </mxCell>
        <mxCell id="iNFX2JiSJiYVH2UMlEb5-4" style="edgeStyle=orthogonalEdgeStyle;rounded=0;orthogonalLoop=1;jettySize=auto;html=1;entryX=0.5;entryY=1;entryDx=0;entryDy=0;" edge="1" parent="1" source="iNFX2JiSJiYVH2UMlEb5-3" target="fXYUxJYB6lVr97315Qnc-3">
          <mxGeometry relative="1" as="geometry" />
        </mxCell>
        <mxCell id="t5sSbDTQjYIQpJjOh26B-1" value="" style="edgeStyle=orthogonalEdgeStyle;rounded=0;orthogonalLoop=1;jettySize=auto;html=1;entryX=0.25;entryY=0;entryDx=0;entryDy=0;" edge="1" parent="1" source="iNFX2JiSJiYVH2UMlEb5-3" target="iNFX2JiSJiYVH2UMlEb5-16">
          <mxGeometry relative="1" as="geometry" />
        </mxCell>
        <mxCell id="t5sSbDTQjYIQpJjOh26B-3" value="" style="edgeStyle=orthogonalEdgeStyle;rounded=0;orthogonalLoop=1;jettySize=auto;html=1;entryX=0.5;entryY=0;entryDx=0;entryDy=0;" edge="1" parent="1" source="iNFX2JiSJiYVH2UMlEb5-3" target="iNFX2JiSJiYVH2UMlEb5-13">
          <mxGeometry relative="1" as="geometry" />
        </mxCell>
        <mxCell id="t5sSbDTQjYIQpJjOh26B-4" value="" style="edgeStyle=orthogonalEdgeStyle;rounded=0;orthogonalLoop=1;jettySize=auto;html=1;" edge="1" parent="1" source="iNFX2JiSJiYVH2UMlEb5-3" target="iNFX2JiSJiYVH2UMlEb5-14">
          <mxGeometry relative="1" as="geometry" />
        </mxCell>
        <mxCell id="t5sSbDTQjYIQpJjOh26B-17" style="edgeStyle=orthogonalEdgeStyle;rounded=0;orthogonalLoop=1;jettySize=auto;html=1;entryX=0.5;entryY=0;entryDx=0;entryDy=0;" edge="1" parent="1" source="iNFX2JiSJiYVH2UMlEb5-3" target="t5sSbDTQjYIQpJjOh26B-15">
          <mxGeometry relative="1" as="geometry" />
        </mxCell>
        <mxCell id="iNFX2JiSJiYVH2UMlEb5-3" value="超级管理员" style="rounded=1;whiteSpace=wrap;html=1;" vertex="1" parent="1">
          <mxGeometry x="390" y="220" width="120" height="60" as="geometry" />
        </mxCell>
        <mxCell id="iNFX2JiSJiYVH2UMlEb5-6" style="edgeStyle=orthogonalEdgeStyle;rounded=0;orthogonalLoop=1;jettySize=auto;html=1;entryX=0.5;entryY=1;entryDx=0;entryDy=0;" edge="1" parent="1" source="iNFX2JiSJiYVH2UMlEb5-5" target="fXYUxJYB6lVr97315Qnc-3">
          <mxGeometry relative="1" as="geometry">
            <Array as="points">
              <mxPoint x="610" y="190" />
              <mxPoint x="450" y="190" />
            </Array>
          </mxGeometry>
        </mxCell>
        <mxCell id="t5sSbDTQjYIQpJjOh26B-5" value="" style="edgeStyle=orthogonalEdgeStyle;rounded=0;orthogonalLoop=1;jettySize=auto;html=1;" edge="1" parent="1" source="iNFX2JiSJiYVH2UMlEb5-5" target="iNFX2JiSJiYVH2UMlEb5-18">
          <mxGeometry relative="1" as="geometry" />
        </mxCell>
        <mxCell id="t5sSbDTQjYIQpJjOh26B-6" value="" style="edgeStyle=orthogonalEdgeStyle;rounded=0;orthogonalLoop=1;jettySize=auto;html=1;entryX=0.5;entryY=0;entryDx=0;entryDy=0;" edge="1" parent="1" source="iNFX2JiSJiYVH2UMlEb5-5" target="iNFX2JiSJiYVH2UMlEb5-17">
          <mxGeometry relative="1" as="geometry" />
        </mxCell>
        <mxCell id="iNFX2JiSJiYVH2UMlEb5-5" value="商户&amp;nbsp;" style="rounded=1;whiteSpace=wrap;html=1;" vertex="1" parent="1">
          <mxGeometry x="550" y="220" width="120" height="60" as="geometry" />
        </mxCell>
        <mxCell id="iNFX2JiSJiYVH2UMlEb5-23" value="" style="edgeStyle=orthogonalEdgeStyle;rounded=0;orthogonalLoop=1;jettySize=auto;html=1;" edge="1" parent="1" source="iNFX2JiSJiYVH2UMlEb5-7" target="iNFX2JiSJiYVH2UMlEb5-12">
          <mxGeometry relative="1" as="geometry" />
        </mxCell>
        <mxCell id="iNFX2JiSJiYVH2UMlEb5-24" value="" style="edgeStyle=orthogonalEdgeStyle;rounded=0;orthogonalLoop=1;jettySize=auto;html=1;entryX=0.5;entryY=0;entryDx=0;entryDy=0;" edge="1" parent="1" source="iNFX2JiSJiYVH2UMlEb5-7" target="iNFX2JiSJiYVH2UMlEb5-11">
          <mxGeometry relative="1" as="geometry" />
        </mxCell>
        <mxCell id="iNFX2JiSJiYVH2UMlEb5-25" value="" style="edgeStyle=orthogonalEdgeStyle;rounded=0;orthogonalLoop=1;jettySize=auto;html=1;" edge="1" parent="1" source="iNFX2JiSJiYVH2UMlEb5-7" target="iNFX2JiSJiYVH2UMlEb5-12">
          <mxGeometry relative="1" as="geometry" />
        </mxCell>
        <mxCell id="iNFX2JiSJiYVH2UMlEb5-27" style="edgeStyle=orthogonalEdgeStyle;rounded=0;orthogonalLoop=1;jettySize=auto;html=1;" edge="1" parent="1" source="iNFX2JiSJiYVH2UMlEb5-7" target="iNFX2JiSJiYVH2UMlEb5-10">
          <mxGeometry relative="1" as="geometry" />
        </mxCell>
        <mxCell id="iNFX2JiSJiYVH2UMlEb5-7" value="校区管理员" style="rounded=1;whiteSpace=wrap;html=1;" vertex="1" parent="1">
          <mxGeometry x="220" y="220" width="120" height="60" as="geometry" />
        </mxCell>
        <mxCell id="iNFX2JiSJiYVH2UMlEb5-10" value="校园动态" style="rounded=1;whiteSpace=wrap;html=1;" vertex="1" parent="1">
          <mxGeometry x="170" y="330" width="50" height="180" as="geometry" />
        </mxCell>
        <mxCell id="iNFX2JiSJiYVH2UMlEb5-11" value="校园话题" style="rounded=1;whiteSpace=wrap;html=1;" vertex="1" parent="1">
          <mxGeometry x="230" y="330" width="50" height="180" as="geometry" />
        </mxCell>
        <mxCell id="iNFX2JiSJiYVH2UMlEb5-12" value="屏蔽词" style="rounded=1;whiteSpace=wrap;html=1;" vertex="1" parent="1">
          <mxGeometry x="290" y="330" width="50" height="180" as="geometry" />
        </mxCell>
        <mxCell id="iNFX2JiSJiYVH2UMlEb5-13" value="校区信息" style="rounded=1;whiteSpace=wrap;html=1;" vertex="1" parent="1">
          <mxGeometry x="364" y="330" width="40" height="180" as="geometry" />
        </mxCell>
        <mxCell id="iNFX2JiSJiYVH2UMlEb5-14" value="机器人信息" style="rounded=1;whiteSpace=wrap;html=1;" vertex="1" parent="1">
          <mxGeometry x="410" y="330" width="40" height="180" as="geometry" />
        </mxCell>
        <mxCell id="iNFX2JiSJiYVH2UMlEb5-16" value="日志信息" style="rounded=1;whiteSpace=wrap;html=1;" vertex="1" parent="1">
          <mxGeometry x="460" y="330" width="30" height="180" as="geometry" />
        </mxCell>
        <mxCell id="iNFX2JiSJiYVH2UMlEb5-17" value="订单信息" style="rounded=1;whiteSpace=wrap;html=1;" vertex="1" parent="1">
          <mxGeometry x="570" y="330" width="50" height="180" as="geometry" />
        </mxCell>
        <mxCell id="iNFX2JiSJiYVH2UMlEb5-18" value="商家信息" style="rounded=1;whiteSpace=wrap;html=1;" vertex="1" parent="1">
          <mxGeometry x="650" y="330" width="50" height="180" as="geometry" />
        </mxCell>
        <mxCell id="t5sSbDTQjYIQpJjOh26B-7" value="审核动态" style="rounded=1;whiteSpace=wrap;html=1;" vertex="1" parent="1">
          <mxGeometry x="170" y="540" width="50" height="180" as="geometry" />
        </mxCell>
        <mxCell id="t5sSbDTQjYIQpJjOh26B-8" value="修改校园话题" style="rounded=1;whiteSpace=wrap;html=1;" vertex="1" parent="1">
          <mxGeometry x="230" y="540" width="50" height="180" as="geometry" />
        </mxCell>
        <mxCell id="t5sSbDTQjYIQpJjOh26B-9" value="修改屏蔽词" style="rounded=1;whiteSpace=wrap;html=1;" vertex="1" parent="1">
          <mxGeometry x="290" y="540" width="50" height="180" as="geometry" />
        </mxCell>
        <mxCell id="t5sSbDTQjYIQpJjOh26B-10" value="修改校区信息" style="rounded=1;whiteSpace=wrap;html=1;" vertex="1" parent="1">
          <mxGeometry x="364" y="540" width="36" height="180" as="geometry" />
        </mxCell>
        <mxCell id="t5sSbDTQjYIQpJjOh26B-11" value="修改机器人信息" style="rounded=1;whiteSpace=wrap;html=1;" vertex="1" parent="1">
          <mxGeometry x="414" y="540" width="36" height="180" as="geometry" />
        </mxCell>
        <mxCell id="t5sSbDTQjYIQpJjOh26B-12" value="查看日志信息" style="rounded=1;whiteSpace=wrap;html=1;" vertex="1" parent="1">
          <mxGeometry x="460" y="540" width="30" height="180" as="geometry" />
        </mxCell>
        <mxCell id="t5sSbDTQjYIQpJjOh26B-13" value="查看订单信息" style="rounded=1;whiteSpace=wrap;html=1;" vertex="1" parent="1">
          <mxGeometry x="570" y="540" width="50" height="180" as="geometry" />
        </mxCell>
        <mxCell id="t5sSbDTQjYIQpJjOh26B-14" value="修改商家信息" style="rounded=1;whiteSpace=wrap;html=1;" vertex="1" parent="1">
          <mxGeometry x="650" y="540" width="50" height="180" as="geometry" />
        </mxCell>
        <mxCell id="t5sSbDTQjYIQpJjOh26B-15" value="人员管理" style="rounded=1;whiteSpace=wrap;html=1;" vertex="1" parent="1">
          <mxGeometry x="500" y="330" width="30" height="180" as="geometry" />
        </mxCell>
        <mxCell id="t5sSbDTQjYIQpJjOh26B-18" value="操作人员管理" style="rounded=1;whiteSpace=wrap;html=1;" vertex="1" parent="1">
          <mxGeometry x="500" y="540" width="30" height="180" as="geometry" />
        </mxCell>
      </root>
    </mxGraphModel>
  </diagram>
  <diagram id="Udy7OvLvNamAekwSlYOv" name="第 2 页">
    <mxGraphModel dx="1037" dy="548" grid="1" gridSize="10" guides="1" tooltips="1" connect="1" arrows="1" fold="1" page="1" pageScale="1" pageWidth="827" pageHeight="1169" math="0" shadow="0">
      <root>
        <mxCell id="gwLnaP9lzHfi3qdF1Xc9-0" />
        <mxCell id="gwLnaP9lzHfi3qdF1Xc9-1" parent="gwLnaP9lzHfi3qdF1Xc9-0" />
      </root>
    </mxGraphModel>
  </diagram>
</mxfile>
